<?xml version="1.0" encoding="UTF-8" standalone="no" ?>
<!DOCTYPE svg PUBLIC "-//W3C//DTD SVG 1.1//EN" "http://www.w3.org/Graphics/SVG/1.1/DTD/svg11.dtd">
<svg xmlns="http://www.w3.org/2000/svg"     transform="scale(7.5)" xmlns:xlink="http://www.w3.org/1999/xlink" version="1.1" width="107" height="148" viewBox="0 0 1080 1080" xml:space="preserve">
<desc>Created with Fabric.js 5.2.4</desc>
<defs>
</defs>
<g transform="matrix(1 0 0 1 540 540)" id="e13eb11b-32ab-4b91-904e-c894d1f86a5f"  >
</g>
<g transform="matrix(1 0 0 1 540 540)" id="3b35ccba-a07d-4885-89c2-3f1def0ecbcd"  >
<rect style="stroke: none; stroke-width: 1; stroke-dasharray: none; stroke-linecap: butt; stroke-dashoffset: 0; stroke-linejoin: miter; stroke-miterlimit: 4; fill: rgb(255,255,255); fill-rule: nonzero; opacity: 1; visibility: hidden;" vector-effect="non-scaling-stroke"  x="-540" y="-540" rx="0" ry="0" width="1080" height="1080" />
</g>
<g transform="matrix(1 0 0 1 540 540)"  >
<path style="stroke: rgb(0,0,0); stroke-width: 0; stroke-dasharray: none; stroke-linecap: butt; stroke-dashoffset: 0; stroke-linejoin: miter; stroke-miterlimit: 4; fill: rgb(255,255,255); fill-rule: nonzero; opacity: 1;" vector-effect="non-scaling-stroke"  transform=" translate(-53.69, -73.61)" d="M 37.4377 0 C 38.5131 1.23541 38.9308 2.86634 39.6596 4.30618 C 42.2149 10.4921 43.6592 17.0558 44.859 23.624 C 46.7299 21.642 48.3475 19.1578 51.0761 18.2824 C 51.4227 19.0334 51.2539 19.8777 51.3872 20.6688 C 52.987 28.1879 51.4316 36.2403 47.5787 42.8484 C 49.4141 41.3731 50.6095 39.3155 52.0982 37.5246 C 57.822 30.4499 61.6882 21.9219 63.1903 12.9407 C 63.5636 13.2563 63.9324 13.5807 64.2257 13.9762 C 67.8875 19.2911 70.3939 25.526 70.6517 32.0275 C 70.7761 37.729 69.0829 43.4439 65.7855 48.1101 C 64.1768 51.0253 61.5238 53.1006 59.4974 55.6781 C 63.7191 52.5229 67.7364 49.0033 70.7983 44.6794 C 73.6069 41.2931 75.0911 37.1113 76.8021 33.134 C 77.2109 33.454 77.4864 33.8628 77.6242 34.3605 C 79.2107 40.2887 80.4283 46.6125 78.8018 52.674 C 77.6553 59.1488 72.8381 64.2816 67.4254 67.6545 C 72.9136 66.5169 78.4463 63.8194 81.446 58.8777 C 81.9926 58.1312 82.1481 57.0379 82.988 56.5447 C 84.3701 59.8376 84.7034 63.5217 84.2679 67.0501 C 83.4635 70.6719 81.446 74.0938 78.3974 76.2713 C 77.2331 77.2312 75.7977 77.76 74.5668 78.6177 C 76.5932 79.2354 78.713 79.6487 80.575 80.7241 C 82.477 81.6351 83.9212 83.2261 85.1833 84.8748 C 76.3132 86.3413 67.2343 88.7366 59.9462 94.2426 C 55.88 97.34 52.6981 102.188 52.8937 107.432 C 56.1911 108.108 59.364 109.334 62.7237 109.685 C 70.2784 110.49 77.7353 112.489 84.5078 115.956 C 92.2447 119.782 98.7818 126.048 102.639 133.798 C 104.812 137.975 105.972 142.579 106.581 147.228 C 105.265 147.192 105.345 145.699 104.928 144.801 C 102.652 139.246 99.124 134.211 94.6978 130.15 C 89.9428 125.972 84.0501 123.382 78.0641 121.506 C 75.2689 120.826 72.4159 120.377 69.6118 119.72 C 65.8744 119.173 62.3237 117.835 58.7019 116.813 C 51.1028 114.347 43.557 110.539 38.6686 104.01 C 35.6157 99.602 33.8692 94.2915 33.6825 88.9454 C 33.6825 84.0904 33.0137 82.0907 30.7584 73.7383 C 27.6832 76.1647 27.3677 80.5019 25.4524 83.6794 C 24.8258 78.1778 25.2302 72.0451 28.7587 67.5168 C 31.5939 64.3127 35.7045 62.2374 39.9618 61.8196 C 42.8904 61.6508 45.9522 61.6419 48.6764 62.8817 C 50.6495 63.7305 52.1738 65.2859 53.6625 66.7835 C 54.7735 67.8234 55.089 69.4854 56.3866 70.3609 C 56.5288 66.5658 55.8311 62.2374 52.6137 59.7887 C 52.0227 57.8023 52.787 55.6203 52.1382 53.625 C 51.3072 51.0742 49.5074 48.79 47.0766 47.5946 C 43.5836 45.7015 39.5619 45.2171 35.9578 43.595 C 32.9048 42.4352 30.3318 40.4043 27.9676 38.2045 C 27.6966 41.4619 28.2609 44.9371 30.4029 47.5101 C 30.1141 47.8079 29.8119 48.0834 29.4786 48.3234 C 28.9186 47.9101 28.3854 47.4613 27.821 47.0569 C 28.1898 47.919 28.7809 48.6478 29.2742 49.4388 C 28.6742 50.4831 27.3144 50.7276 26.3412 51.3275 C 18.8131 55.4737 12.3028 61.7396 8.58318 69.5521 C 6.65451 73.645 5.46798 78.1511 5.72128 82.7017 C 5.51242 85.2792 6.23678 87.7944 6.20567 90.3586 C 5.03247 89.9098 5.37465 88.4077 4.97026 87.4389 C 3.64152 83.3238 2.84161 79.0666 2.06837 74.8181 C 1.43733 70.5075 0.570757 66.1925 0.855169 61.8152 C 0.61964 56.9935 1.11292 52.0518 3.06825 47.599 C 5.06802 43.3684 8.01435 39.5199 11.8717 36.8269 C 15.8224 33.7873 20.0885 31.1876 24.0303 28.1346 C 26.1456 26.2503 28.1276 24.215 30.0252 22.113 C 31.6872 19.8155 32.9715 17.2603 34.1625 14.6917 C 36.0912 10.03 36.9355 4.99499 37.4377 0 Z" stroke-linecap="round" />
</g>
</svg>