<svg width="19" height="19" viewBox="0 0 19 19" fill="none" xmlns="http://www.w3.org/2000/svg">
<path d="M7.67708 0.125C3.51543 0.125 0.125 3.51544 0.125 7.67708C0.125 11.8387 3.51543 15.2292 7.67708 15.2292C9.47727 15.2292 11.1321 14.5933 12.4317 13.5365L17.5414 18.6461C17.6134 18.7211 17.6996 18.781 17.795 18.8222C17.8904 18.8634 17.9931 18.8852 18.097 18.8863C18.201 18.8873 18.3041 18.8676 18.4003 18.8283C18.4965 18.7891 18.584 18.731 18.6575 18.6575C18.731 18.584 18.7891 18.4965 18.8283 18.4003C18.8676 18.3041 18.8873 18.201 18.8863 18.097C18.8852 17.9931 18.8634 17.8904 18.8222 17.795C18.781 17.6996 18.7211 17.6134 18.6461 17.5414L13.5365 12.4317C14.5933 11.1321 15.2292 9.47727 15.2292 7.67708C15.2292 3.51544 11.8387 0.125 7.67708 0.125ZM7.67708 1.6875C10.9943 1.6875 13.6667 4.35987 13.6667 7.67708C13.6667 9.29303 13.0293 10.753 11.9953 11.8285C11.9316 11.8753 11.8753 11.9316 11.8285 11.9953C10.753 13.0293 9.29303 13.6667 7.67708 13.6667C4.35987 13.6667 1.6875 10.9943 1.6875 7.67708C1.6875 4.35987 4.35987 1.6875 7.67708 1.6875Z" fill="white"/>
</svg>
