<svg width="19" height="19" viewBox="0 0 19 19" fill="none" xmlns="http://www.w3.org/2000/svg">
<path d="M0.894123 0.113865C0.6871 0.117099 0.489826 0.202372 0.345631 0.350955C0.201435 0.499537 0.122111 0.699278 0.12508 0.906305V18.0938C0.125101 18.301 0.207418 18.4997 0.353926 18.6462C0.500435 18.7927 0.699136 18.875 0.90633 18.8751H18.0938C18.1974 18.8765 18.3001 18.8574 18.3962 18.8188C18.4923 18.7802 18.5797 18.7229 18.6534 18.6502C18.7272 18.5775 18.7857 18.4909 18.8257 18.3954C18.8656 18.2998 18.8862 18.1973 18.8862 18.0938C18.8862 17.9903 18.8656 17.8878 18.8257 17.7923C18.7857 17.6967 18.7272 17.6101 18.6534 17.5374C18.5797 17.4647 18.4923 17.4074 18.3962 17.3688C18.3001 17.3302 18.1974 17.3111 18.0938 17.3126H1.68758V0.906305C1.68908 0.801739 1.66957 0.697937 1.63022 0.601049C1.59086 0.504161 1.53245 0.41616 1.45846 0.342261C1.38447 0.268362 1.29639 0.210069 1.19945 0.170836C1.10251 0.131604 0.998687 0.112231 0.894123 0.113865ZM18.1335 1.6784C17.9935 1.67243 17.8545 1.70422 17.731 1.77044C17.6075 1.83666 17.5041 1.93487 17.4316 2.05478L14.1286 7.33941L12.4684 5.12485C12.3915 5.0224 12.2906 4.94043 12.1746 4.88615C12.0586 4.83187 11.931 4.80694 11.8031 4.81358C11.6751 4.82021 11.5508 4.85819 11.441 4.92418C11.3312 4.99017 11.2393 5.08214 11.1735 5.19199L8.64661 9.40342L6.99967 7.20818C6.92398 7.10748 6.82506 7.02656 6.71134 6.97235C6.59762 6.91813 6.47248 6.89221 6.34658 6.89681C6.22068 6.9014 6.09776 6.93638 5.9883 6.99874C5.87884 7.06111 5.78608 7.14902 5.71794 7.25498L3.37419 10.9008C3.31553 10.9871 3.27475 11.0842 3.25424 11.1865C3.23373 11.2888 3.23392 11.3941 3.25478 11.4964C3.27564 11.5986 3.31676 11.6956 3.37571 11.7816C3.43466 11.8677 3.51025 11.9411 3.59802 11.9975C3.68579 12.0539 3.78396 12.0921 3.88674 12.1099C3.98953 12.1278 4.09484 12.1248 4.19648 12.1013C4.29811 12.0778 4.394 12.0342 4.4785 11.973C4.563 11.9118 4.6344 11.8343 4.68848 11.7451L6.42493 9.04432L8.09424 11.2711C8.17113 11.3735 8.27203 11.4555 8.38805 11.5098C8.50408 11.5641 8.63167 11.589 8.7596 11.5824C8.88752 11.5757 9.01185 11.5378 9.12164 11.4718C9.23143 11.4058 9.32332 11.3138 9.3892 11.204L11.9161 6.99253L13.563 9.18776C13.6392 9.2891 13.7389 9.37039 13.8535 9.42459C13.9681 9.4788 14.0942 9.50429 14.2209 9.49889C14.3475 9.49348 14.471 9.45733 14.5806 9.39355C14.6901 9.32978 14.7825 9.24029 14.8498 9.13283L18.7561 2.88283C18.8307 2.76725 18.8735 2.63401 18.8801 2.49659C18.8867 2.35917 18.8569 2.22244 18.7938 2.10023C18.7306 1.97801 18.6363 1.87464 18.5203 1.80057C18.4044 1.7265 18.271 1.68436 18.1335 1.6784Z" fill="white"/>
</svg>
