<svg width="21" height="19" viewBox="0 0 21 19" fill="none" xmlns="http://www.w3.org/2000/svg">
<path d="M5.81315 0.645996C2.65817 0.645996 0.0839844 3.22018 0.0839844 6.37516C0.0839844 8.50858 1.69213 10.5173 3.65251 12.5774C5.61288 14.6374 8.02585 16.7238 9.94828 18.6463C10.0948 18.7927 10.2935 18.875 10.5007 18.875C10.7078 18.875 10.9065 18.7927 11.053 18.6463C12.9755 16.7238 15.3884 14.6374 17.3488 12.5774C19.3092 10.5173 20.9173 8.50858 20.9173 6.37516C20.9173 3.22018 18.3431 0.645996 15.1882 0.645996C13.3775 0.645996 11.8011 1.61813 10.5007 3.26949C9.20022 1.61813 7.62379 0.645996 5.81315 0.645996ZM5.81315 2.2085C7.33845 2.2085 8.6081 3.02016 9.84045 4.96932C9.91092 5.08066 10.0084 5.17236 10.1238 5.23591C10.2393 5.29946 10.3689 5.33278 10.5007 5.33278C10.6324 5.33278 10.762 5.29946 10.8775 5.23591C10.9929 5.17236 11.0904 5.08066 11.1608 4.96932C12.3932 3.02016 13.6629 2.2085 15.1882 2.2085C17.4988 2.2085 19.3548 4.06452 19.3548 6.37516C19.3548 7.62717 18.0984 9.52469 16.2176 11.5011C14.5025 13.3034 12.3706 15.1863 10.5007 17.0095C8.6307 15.1863 6.49878 13.3034 4.78369 11.5011C2.90292 9.52469 1.64648 7.62717 1.64648 6.37516C1.64648 4.06452 3.5025 2.2085 5.81315 2.2085Z" fill="white"/>
</svg>
